<?xml version="1.0" standalone="no"?>
<!DOCTYPE svg PUBLIC "-//W3C//DTD SVG 20010904//EN"
 "http://www.w3.org/TR/2001/REC-SVG-20010904/DTD/svg10.dtd">
<svg version="1.0" xmlns="http://www.w3.org/2000/svg"
 width="512.000000pt" height="512.000000pt" viewBox="0 0 512.000000 512.000000"
 preserveAspectRatio="xMidYMid meet">
<metadata>
Created by potrace 1.14, written by Peter Selinger 2001-2017
</metadata>
<g transform="translate(0.000000,512.000000) scale(0.100000,-0.100000)"
fill="#000000" stroke="none">
<path d="M1049 5111 c-61 -12 -149 -63 -190 -109 -38 -44 -85 -129 -93 -167
-3 -11 -9 -40 -14 -64 -7 -29 -11 -568 -10 -1560 0 -1406 1 -1525 18 -1637 31
-210 81 -372 169 -553 88 -180 199 -337 338 -477 296 -298 677 -485 1088 -531
80 -9 335 -9 410 0 273 33 502 112 739 255 442 266 762 735 847 1242 27 160
31 410 9 557 -107 732 -623 1316 -1332 1507 -51 14 -107 28 -124 30 -242 41
-458 41 -692 0 -173 -31 -450 -139 -596 -232 -28 -18 -53 -32 -57 -32 -4 0 -7
314 -8 698 0 383 -2 706 -5 717 -3 11 -9 36 -14 55 -31 124 -132 235 -254 282
-55 21 -170 30 -229 19z m1641 -2296 c318 -36 608 -239 763 -534 221 -423 108
-951 -269 -1251 -123 -98 -308 -180 -464 -205 -126 -20 -340 -8 -425 25 -16 6
-32 11 -35 11 -27 -4 -187 73 -275 132 -77 52 -199 174 -254 256 -203 298
-233 675 -80 1001 107 228 320 424 551 509 83 31 177 52 253 58 39 3 71 7 73
8 4 4 89 -2 162 -10z"/>
</g>
</svg>
